#!OML:ASF H:\MichaelJackson\Top Level 1\Subject 1\Session 1\male.ASF
:FULLY-SPECIFIED
:DEGREES
1
root 6.24314 16.836 -28.1378 9.0217 -2.52979 -3.05774
lowerback -2.05144 3.66971 -5.03766
upperback -2.66728 5.00355 3.49279
thorax -2.36397 2.67023 6.42441
lowerneck -9.84699 -2.36864 1.94815
upperneck -1.37933 -3.32542 -1.65382
head 1.16433 -1.69823 -0.975663
rclavicle -1.65488e-014 -3.69739e-014
rhumerus -43.273 -4.86223 -84.2703
rradius 40.4763
rwrist 9.89469
rhand -23.7965 -22.476
rfingers 7.12502
rthumb 2.67393 -52.439
lclavicle -1.65488e-014 -3.69739e-014
lhumerus -41.7253 -10.8128 99.8312
lradius 34.5094
lwrist 2.17521
lhand -10.5949 9.65639
lfingers 7.12502
lthumb 15.4107 39.062
rfemur -19.4747 0.22019 19.5256
rtibia 36.0342
rfoot -30.3779 -10.4967
rtoes 21.4483
lfemur -20.3712 2.30257 -19.9954
ltibia 35.927
lfoot -38.654 3.93715
ltoes 38.9541
2
root 6.2418 16.8435 -28.1012 8.97638 -2.68076 -2.54658
lowerback -2.54459 3.62628 -5.34154
upperback -2.54312 4.96346 3.26513
thorax -1.95818 2.6362 6.39808
lowerneck -9.8194 -2.34473 1.97134
upperneck -1.42916 -3.2978 -1.55537
head 1.14499 -1.68243 -0.946245
rclavicle -4.50744e-014 -2.70347e-014
rhumerus -43.4283 -4.90495 -84.4522
rradius 40.6399
rwrist 10.0632
rhand -23.9031 -22.3311
rfingers 7.12502
rthumb 2.57095 -52.2954
lclavicle -4.50744e-014 -2.70347e-014
lhumerus -41.781 -10.6307 99.5648
lradius 34.5352
lwrist 2.17237
lhand -10.2409 10.4451
lfingers 7.12502
lthumb 15.7516 39.8241
rfemur -19.0551 -0.152065 18.9477
rtibia 35.6569
rfoot -30.5593 -10.3279
rtoes 21.3438
lfemur -19.8931 2.19256 -20.5883
ltibia 35.4964
lfoot -38.6549 4.11974
ltoes 38.9351
3
root 6.23722 16.8492 -28.0946 9.14115 -2.91345 -2.59373
lowerback -2.76349 3.66736 -5.13672
upperback -2.59498 5.02234 3.17557
thorax -1.87079 2.65885 6.2012
lowerneck -9.87531 -2.31596 2.03848
upperneck -1.36117 -3.26796 -1.52866
head 1.17664 -1.66712 -0.9503
rclavicle -2.81529e-014 -1.27222e-014
rhumerus -43.3515 -4.87063 -84.6511
rradius 40.4278
rwrist 10.1332
rhand -23.9367 -22.1703
rfingers 7.12502
rthumb 2.53851 -52.1349
lclavicle -2.81529e-014 -1.27222e-014
lhumerus -41.9099 -10.5446 99.3597
lradius 34.6441
lwrist 2.348
lhand -7.39348 15.6502
lfingers 7.12502
lthumb 18.4924 44.7912
rfemur -19.0536 0.111415 18.9918
rtibia 35.2865
rfoot -30.5273 -10.3965
rtoes 21.771
lfemur -19.9526 2.24686 -20.5514
ltibia 35.3787
lfoot -38.6297 4.29019
ltoes 38.8222
4
root 6.23329 16.8525 -28.0886 9.27418 -3.11946 -2.60389
lowerback -2.97438 3.68294 -4.9218
upperback -2.61913 5.04544 3.07234
thorax -1.75124 2.66143 5.98606
lowerneck -9.82686 -2.28344 2.0165
upperneck -1.41675 -3.22392 -1.41065
head 1.15294 -1.64258 -0.905956
rclavicle -1.09108e-013 -4.33351e-014
rhumerus -43.9079 -4.43773 -85.0134
rradius 41.3047
rwrist 9.85575
rhand -23.9891 -22.3842
rfingers 7.12502
rthumb 2.48792 -52.3495
lclavicle -1.09108e-013 -4.33351e-014
lhumerus -42.0008 -10.4886 99.1718
lradius 34.7247
lwrist 2.50452
lhand -11.6336 3.19806
lfingers 7.12502
lthumb 14.41 32.6778
rfemur -19.0092 0.404986 18.9796
rtibia 34.9338
rfoot -30.5489 -10.4701
rtoes 22.129
lfemur -19.9756 2.29805 -20.5522
ltibia 35.2289
lfoot -38.5729 4.37367
ltoes 38.7791
5
root 6.21379 16.8552 -28.0946 9.26444 -2.99204 -2.71362
lowerback -3.06663 3.66957 -4.85332
upperback -2.51093 5.02932 3.07265
thorax -1.57862 2.64391 5.95936
lowerneck -9.87508 -2.30866 2.09188
upperneck -1.53728 -3.26727 -1.3882
head 1.12089 -1.66444 -0.912446
rclavicle -3.88873e-014 -8.74653e-015
rhumerus -43.1436 -4.87025 -84.9642
rradius 40.5096
rwrist 10.093
rhand -24.0174 -22.2024
rfingers 7.12502
rthumb 2.46058 -52.1679
lclavicle -3.88873e-014 -8.74653e-015
lhumerus -41.8766 -10.8027 99.1657
lradius 34.8056
lwrist 2.65647
lhand -10.6489 6.5864
lfingers 7.12502
lthumb 15.3587 35.996
rfemur -18.8001 1.05445 19.1936
rtibia 34.601
rfoot -30.3241 -11.1943
rtoes 21.8448
lfemur -19.998 2.31319 -20.3176
ltibia 35.183
lfoot -38.3547 4.35953
ltoes 38.7136
6
root 6.2036 16.8585 -28.0909 9.31758 -3.03398 -2.72062
lowerback -3.23642 3.66449 -4.74576
upperback -2.47274 5.02517 3.00432
thorax -1.427 2.63329 5.84158
lowerneck -9.88756 -2.30095 2.12961
upperneck -1.59397 -3.26246 -1.33352
head 1.10507 -1.66124 -0.900871
rclavicle 3.13086e-015 -1.23246e-014
rhumerus -42.9964 -4.91378 -85.1038
rradius 40.4279
rwrist 10.1329
rhand -24.0595 -22.1551
rfingers 7.12502
rthumb 2.41992 -52.1211
lclavicle 3.13086e-015 -1.23246e-014
lhumerus -41.8846 -10.8937 99.0544
lradius 34.889
lwrist 2.78709
lhand -10.8465 5.58566
lfingers 7.12502
lthumb 15.1683 35.0097
rfemur -18.6661 1.40853 19.2311
rtibia 34.2902
rfoot -30.257 -11.5202
rtoes 21.8544
lfemur -20.01 2.32101 -20.2705
ltibia 35.1359
lfoot -38.2881 4.41743
ltoes 38.6586
